<svg xmlns="http://www.w3.org/2000/svg" viewBox="0 0 1600 900" width="1600" height="900"
     role="img" aria-label="The market at Ambervale, with every landmark behind it">
  <title>AMBERVALE — the market</title>
  <defs>
    <linearGradient id="sky" x1="0" y1="0" x2="0" y2="1">
      <stop offset="0" stop-color="#2f7f9e"/>
      <stop offset="0.32" stop-color="#5aa8bb"/>
      <stop offset="0.58" stop-color="#8fc0b4"/>
      <stop offset="0.80" stop-color="#f2cf96"/>
      <stop offset="1" stop-color="#ffdca6"/>
    </linearGradient>
    <radialGradient id="halo" cx="0.5" cy="0.5" r="0.5">
      <stop offset="0" stop-color="#fff6da" stop-opacity="0.95"/>
      <stop offset="0.42" stop-color="#ffe6ae" stop-opacity="0.34"/>
      <stop offset="1" stop-color="#ffe6ae" stop-opacity="0"/>
    </radialGradient>
    <linearGradient id="path" x1="0" y1="0" x2="0" y2="1">
      <stop offset="0" stop-color="#9a7a52"/>
      <stop offset="1" stop-color="#8b6e46"/>
    </linearGradient>
    <linearGradient id="topshade" x1="0" y1="0" x2="0" y2="1">
      <stop offset="0" stop-color="#07242f" stop-opacity="0.44"/>
      <stop offset="1" stop-color="#07242f" stop-opacity="0"/>
    </linearGradient>
    <linearGradient id="footer" x1="0" y1="0" x2="0" y2="1">
      <stop offset="0" stop-color="#07242f" stop-opacity="0"/>
      <stop offset="0.5" stop-color="#07242f" stop-opacity="0.82"/>
      <stop offset="1" stop-color="#07242f" stop-opacity="0.95"/>
    </linearGradient>
    <filter id="grain" x="0" y="0" width="100%" height="100%">
      <feTurbulence type="fractalNoise" baseFrequency="0.85" numOctaves="3" seed="8" result="n"/>
      <feColorMatrix in="n" type="saturate" values="0"/>
      <feComponentTransfer><feFuncA type="linear" slope="0.5"/></feComponentTransfer>
    </filter>
  </defs>

  <rect width="1600" height="900" fill="url(#sky)"/>
  <circle cx="1380" cy="330" r="149.6" fill="url(#halo)"/>
  <circle cx="1380" cy="330" r="44" fill="#fff8e4" opacity="0.55"/>
  <path d="M 1380 330 L 1114 1397 L 1004 1364 Z" fill="#fff0c8" opacity="0.100"/><path d="M 1380 330 L 765 1242 L 673 1173 Z" fill="#fff0c8" opacity="0.070"/><path d="M 1380 330 L 468 945 L 409 846 Z" fill="#fff0c8" opacity="0.100"/><path d="M 1380 330 L 313 596 L 291 483 Z" fill="#fff0c8" opacity="0.060"/><path d="M 1380 330 L 1827 1335 L 1720 1376 Z" fill="#fff0c8" opacity="0.080"/><path d="M 1380 330 L 2171 1094 L 2087 1173 Z" fill="#fff0c8" opacity="0.050"/>

  <path d="M -10 437.9 L 0 439.1 L 10 440.3 L 20 441.4 L 30 442.4 L 40 443.3 L 50 444.1 L 60 444.8 L 70 445.3 L 80 445.7 L 90 446.0 L 100 446.2 L 110 446.3 L 120 446.2 L 130 446.1 L 140 445.8 L 150 445.5 L 160 445.0 L 170 444.6 L 180 444.0 L 190 443.4 L 200 442.8 L 210 442.2 L 220 441.6 L 230 440.9 L 240 440.3 L 250 439.8 L 260 439.2 L 270 438.7 L 280 438.3 L 290 437.9 L 300 437.6 L 310 437.4 L 320 437.2 L 330 437.1 L 340 437.1 L 350 437.1 L 360 437.2 L 370 437.3 L 380 437.5 L 390 437.7 L 400 438.0 L 410 438.2 L 420 438.5 L 430 438.7 L 440 438.9 L 450 439.1 L 460 439.3 L 470 439.3 L 480 439.4 L 490 439.3 L 500 439.2 L 510 438.9 L 520 438.6 L 530 438.2 L 540 437.7 L 550 437.0 L 560 436.3 L 570 435.5 L 580 434.5 L 590 433.5 L 600 432.4 L 610 431.2 L 620 430.0 L 630 428.7 L 640 427.4 L 650 426.0 L 660 424.7 L 670 423.3 L 680 421.9 L 690 420.6 L 700 419.3 L 710 418.1 L 720 417.0 L 730 415.9 L 740 414.9 L 750 414.1 L 760 413.3 L 770 412.7 L 780 412.2 L 790 411.8 L 800 411.5 L 810 411.4 L 820 411.4 L 830 411.5 L 840 411.8 L 850 412.1 L 860 412.6 L 870 413.2 L 880 413.8 L 890 414.5 L 900 415.2 L 910 416.1 L 920 416.9 L 930 417.8 L 940 418.6 L 950 419.5 L 960 420.3 L 970 421.1 L 980 421.9 L 990 422.6 L 1000 423.3 L 1010 423.9 L 1020 424.4 L 1030 424.9 L 1040 425.3 L 1050 425.6 L 1060 425.8 L 1070 426.0 L 1080 426.1 L 1090 426.1 L 1100 426.1 L 1110 426.0 L 1120 425.9 L 1130 425.8 L 1140 425.7 L 1150 425.6 L 1160 425.4 L 1170 425.3 L 1180 425.3 L 1190 425.3 L 1200 425.3 L 1210 425.4 L 1220 425.5 L 1230 425.8 L 1240 426.1 L 1250 426.5 L 1260 427.1 L 1270 427.7 L 1280 428.3 L 1290 429.1 L 1300 430.0 L 1310 430.9 L 1320 432.0 L 1330 433.1 L 1340 434.2 L 1350 435.4 L 1360 436.6 L 1370 437.8 L 1380 439.1 L 1390 440.3 L 1400 441.5 L 1410 442.7 L 1420 443.8 L 1430 444.9 L 1440 445.8 L 1450 446.7 L 1460 447.5 L 1470 448.2 L 1480 448.8 L 1490 449.2 L 1500 449.5 L 1510 449.7 L 1520 449.8 L 1530 449.7 L 1540 449.5 L 1550 449.1 L 1560 448.7 L 1570 448.1 L 1580 447.4 L 1590 446.7 L 1600 445.8 L 1610 444.9 L 1610 900 L -10 900 Z" fill="#6ba064"/>
  <rect x="57.3" y="444.6" width="1.7" height="3.5" fill="#2f5540"/><path d="M 58.2 435.1 L 64.7 444.6 L 51.7 444.6 Z" fill="#3d6b52"/><path d="M 58.2 428.8 L 63.1 438.3 L 53.2 438.3 Z" fill="#3d6b52"/><path d="M 58.2 422.5 L 61.3 432.0 L 55.0 432.0 Z" fill="#3d6b52"/><rect x="-2.9" y="438.6" width="1.8" height="3.8" fill="#2f5540"/><path d="M -2.0 428.2 L 5.1 438.6 L -9.1 438.6 Z" fill="#3d6b52"/><path d="M -2.0 421.3 L 3.4 431.8 L -7.4 431.8 Z" fill="#3d6b52"/><path d="M -2.0 414.5 L 1.4 424.9 L -5.4 424.9 Z" fill="#3d6b52"/><rect x="22.9" y="441.7" width="1.7" height="3.6" fill="#2f5540"/><path d="M 23.8 431.7 L 30.6 441.7 L 17.0 441.7 Z" fill="#3d6b52"/><path d="M 23.8 425.2 L 28.9 435.1 L 18.6 435.1 Z" fill="#3d6b52"/><path d="M 23.8 418.6 L 27.0 428.6 L 20.5 428.6 Z" fill="#3d6b52"/><rect x="5.1" y="439.8" width="1.7" height="3.6" fill="#2f5540"/><path d="M 5.9 430.0 L 12.6 439.8 L -0.7 439.8 Z" fill="#3d6b52"/><path d="M 5.9 423.6 L 11.0 433.4 L 0.9 433.4 Z" fill="#3d6b52"/><path d="M 5.9 417.2 L 9.1 426.9 L 2.7 426.9 Z" fill="#3d6b52"/><rect x="31.7" y="441.3" width="2.4" height="5.0" fill="#2f5540"/><path d="M 32.9 427.5 L 42.3 441.3 L 23.5 441.3 Z" fill="#3d6b52"/><path d="M 32.9 418.4 L 40.0 432.2 L 25.7 432.2 Z" fill="#3d6b52"/><path d="M 32.9 409.4 L 37.4 423.2 L 28.4 423.2 Z" fill="#3d6b52"/><rect x="21.6" y="441.7" width="1.6" height="3.4" fill="#2f5540"/><path d="M 22.4 432.3 L 28.8 441.7 L 16.0 441.7 Z" fill="#3d6b52"/><path d="M 22.4 426.1 L 27.3 435.5 L 17.6 435.5 Z" fill="#3d6b52"/><path d="M 22.4 419.9 L 25.5 429.3 L 19.3 429.3 Z" fill="#3d6b52"/><rect x="215.9" y="441.3" width="1.9" height="4.0" fill="#2f5540"/><path d="M 216.9 430.4 L 224.3 441.3 L 209.4 441.3 Z" fill="#3d6b52"/><path d="M 216.9 423.2 L 222.5 434.1 L 211.2 434.1 Z" fill="#3d6b52"/><path d="M 216.9 416.0 L 220.5 426.9 L 213.3 426.9 Z" fill="#3d6b52"/><rect x="181.9" y="443.4" width="1.9" height="4.0" fill="#2f5540"/><path d="M 182.8 432.6 L 190.2 443.4 L 175.5 443.4 Z" fill="#3d6b52"/><path d="M 182.8 425.5 L 188.5 436.3 L 177.2 436.3 Z" fill="#3d6b52"/><path d="M 182.8 418.3 L 186.4 429.2 L 179.3 429.2 Z" fill="#3d6b52"/><rect x="185.7" y="443.4" width="1.8" height="3.7" fill="#2f5540"/><path d="M 186.6 433.4 L 193.5 443.4 L 179.7 443.4 Z" fill="#3d6b52"/><path d="M 186.6 426.7 L 191.8 436.8 L 181.4 436.8 Z" fill="#3d6b52"/><path d="M 186.6 420.1 L 189.9 430.2 L 183.3 430.2 Z" fill="#3d6b52"/><rect x="216.2" y="441.9" width="1.6" height="3.3" fill="#2f5540"/><path d="M 217.0 433.0 L 223.1 441.9 L 210.9 441.9 Z" fill="#3d6b52"/><path d="M 217.0 427.1 L 221.6 436.0 L 212.3 436.0 Z" fill="#3d6b52"/><path d="M 217.0 421.2 L 219.9 430.1 L 214.0 430.1 Z" fill="#3d6b52"/><rect x="240.8" y="439.5" width="2.1" height="4.3" fill="#2f5540"/><path d="M 241.8 427.7 L 249.8 439.5 L 233.8 439.5 Z" fill="#3d6b52"/><path d="M 241.8 420.0 L 247.9 431.8 L 235.7 431.8 Z" fill="#3d6b52"/><path d="M 241.8 412.3 L 245.7 424.0 L 237.9 424.0 Z" fill="#3d6b52"/><rect x="395.8" y="437.7" width="1.8" height="3.7" fill="#2f5540"/><path d="M 396.7 427.7 L 403.5 437.7 L 389.9 437.7 Z" fill="#3d6b52"/><path d="M 396.7 421.1 L 401.9 431.1 L 391.5 431.1 Z" fill="#3d6b52"/><path d="M 396.7 414.5 L 400.0 424.5 L 393.4 424.5 Z" fill="#3d6b52"/><rect x="375.1" y="436.3" width="2.3" height="4.8" fill="#2f5540"/><path d="M 376.3 423.3 L 385.1 436.3 L 367.4 436.3 Z" fill="#3d6b52"/><path d="M 376.3 414.7 L 383.0 427.7 L 369.5 427.7 Z" fill="#3d6b52"/><path d="M 376.3 406.2 L 380.5 419.2 L 372.0 419.2 Z" fill="#3d6b52"/><rect x="384.0" y="436.8" width="2.1" height="4.4" fill="#2f5540"/><path d="M 385.1 424.7 L 393.4 436.8 L 376.8 436.8 Z" fill="#3d6b52"/><path d="M 385.1 416.7 L 391.4 428.8 L 378.8 428.8 Z" fill="#3d6b52"/><path d="M 385.1 408.7 L 389.0 420.8 L 381.1 420.8 Z" fill="#3d6b52"/><rect x="397.5" y="436.8" width="2.3" height="4.7" fill="#2f5540"/><path d="M 398.7 423.9 L 407.5 436.8 L 389.8 436.8 Z" fill="#3d6b52"/><path d="M 398.7 415.4 L 405.4 428.3 L 392.0 428.3 Z" fill="#3d6b52"/><path d="M 398.7 406.9 L 402.9 419.8 L 394.4 419.8 Z" fill="#3d6b52"/><rect x="379.3" y="437.2" width="1.9" height="3.9" fill="#2f5540"/><path d="M 380.2 426.6 L 387.4 437.2 L 373.0 437.2 Z" fill="#3d6b52"/><path d="M 380.2 419.7 L 385.7 430.2 L 374.7 430.2 Z" fill="#3d6b52"/><path d="M 380.2 412.7 L 383.7 423.3 L 376.7 423.3 Z" fill="#3d6b52"/><rect x="331.5" y="437.3" width="1.6" height="3.2" fill="#2f5540"/><path d="M 332.3 428.4 L 338.3 437.3 L 326.3 437.3 Z" fill="#3d6b52"/><path d="M 332.3 422.6 L 336.9 431.5 L 327.7 431.5 Z" fill="#3d6b52"/><path d="M 332.3 416.8 L 335.2 425.6 L 329.4 425.6 Z" fill="#3d6b52"/><rect x="511.7" y="438.2" width="2.0" height="4.3" fill="#2f5540"/><path d="M 512.7 426.5 L 520.7 438.2 L 504.8 438.2 Z" fill="#3d6b52"/><path d="M 512.7 418.8 L 518.8 430.5 L 506.7 430.5 Z" fill="#3d6b52"/><path d="M 512.7 411.2 L 516.6 422.8 L 508.9 422.8 Z" fill="#3d6b52"/><rect x="499.6" y="438.8" width="1.8" height="3.8" fill="#2f5540"/><path d="M 500.5 428.3 L 507.7 438.8 L 493.3 438.8 Z" fill="#3d6b52"/><path d="M 500.5 421.4 L 505.9 431.9 L 495.0 431.9 Z" fill="#3d6b52"/><path d="M 500.5 414.5 L 503.9 425.0 L 497.0 425.0 Z" fill="#3d6b52"/><rect x="458.2" y="438.1" width="2.3" height="4.8" fill="#2f5540"/><path d="M 459.3 425.0 L 468.3 438.1 L 450.4 438.1 Z" fill="#3d6b52"/><path d="M 459.3 416.3 L 466.1 429.5 L 452.5 429.5 Z" fill="#3d6b52"/><path d="M 459.3 407.7 L 463.6 420.8 L 455.0 420.8 Z" fill="#3d6b52"/><rect x="515.6" y="437.3" width="2.4" height="5.1" fill="#2f5540"/><path d="M 516.8 423.4 L 526.3 437.3 L 507.3 437.3 Z" fill="#3d6b52"/><path d="M 516.8 414.3 L 524.0 428.2 L 509.6 428.2 Z" fill="#3d6b52"/><path d="M 516.8 405.1 L 521.3 419.0 L 512.2 419.0 Z" fill="#3d6b52"/><rect x="600.8" y="432.4" width="1.6" height="3.3" fill="#2f5540"/><path d="M 601.6 423.3 L 607.8 432.4 L 595.4 432.4 Z" fill="#3d6b52"/><path d="M 601.6 417.3 L 606.3 426.4 L 596.9 426.4 Z" fill="#3d6b52"/><path d="M 601.6 411.3 L 604.6 420.4 L 598.6 420.4 Z" fill="#3d6b52"/><rect x="566.8" y="436.1" width="1.5" height="3.0" fill="#2f5540"/><path d="M 567.6 427.8 L 573.2 436.1 L 561.9 436.1 Z" fill="#3d6b52"/><path d="M 567.6 422.3 L 571.9 430.6 L 563.3 430.6 Z" fill="#3d6b52"/><path d="M 567.6 416.8 L 570.3 425.1 L 564.9 425.1 Z" fill="#3d6b52"/><rect x="643.0" y="426.6" width="1.8" height="3.8" fill="#2f5540"/><path d="M 643.9 416.2 L 651.0 426.6 L 636.8 426.6 Z" fill="#3d6b52"/><path d="M 643.9 409.3 L 649.3 419.7 L 638.5 419.7 Z" fill="#3d6b52"/><path d="M 643.9 402.5 L 647.3 412.9 L 640.5 412.9 Z" fill="#3d6b52"/><rect x="584.8" y="433.6" width="1.9" height="3.9" fill="#2f5540"/><path d="M 585.8 422.8 L 593.1 433.6 L 578.4 433.6 Z" fill="#3d6b52"/><path d="M 585.8 415.7 L 591.3 426.5 L 580.2 426.5 Z" fill="#3d6b52"/><path d="M 585.8 408.6 L 589.3 419.4 L 582.2 419.4 Z" fill="#3d6b52"/><rect x="824.4" y="411.1" width="1.9" height="3.9" fill="#2f5540"/><path d="M 825.3 400.4 L 832.6 411.1 L 818.0 411.1 Z" fill="#3d6b52"/><path d="M 825.3 393.4 L 830.9 404.1 L 819.8 404.1 Z" fill="#3d6b52"/><path d="M 825.3 386.4 L 828.8 397.0 L 821.8 397.0 Z" fill="#3d6b52"/><rect x="793.7" y="410.6" width="2.2" height="4.7" fill="#2f5540"/><path d="M 794.8 397.9 L 803.5 410.6 L 786.1 410.6 Z" fill="#3d6b52"/><path d="M 794.8 389.5 L 801.5 402.2 L 788.2 402.2 Z" fill="#3d6b52"/><path d="M 794.8 381.1 L 799.0 393.8 L 790.7 393.8 Z" fill="#3d6b52"/><rect x="798.1" y="410.4" width="2.3" height="4.8" fill="#2f5540"/><path d="M 799.3 397.2 L 808.3 410.4 L 790.3 410.4 Z" fill="#3d6b52"/><path d="M 799.3 388.5 L 806.1 401.7 L 792.4 401.7 Z" fill="#3d6b52"/><path d="M 799.3 379.9 L 803.6 393.0 L 795.0 393.0 Z" fill="#3d6b52"/><rect x="971.1" y="421.3" width="1.6" height="3.4" fill="#2f5540"/><path d="M 971.9 412.1 L 978.2 421.3 L 965.6 421.3 Z" fill="#3d6b52"/><path d="M 971.9 406.0 L 976.7 415.3 L 967.1 415.3 Z" fill="#3d6b52"/><path d="M 971.9 399.9 L 974.9 409.2 L 968.9 409.2 Z" fill="#3d6b52"/><rect x="1002.6" y="422.4" width="2.3" height="4.7" fill="#2f5540"/><path d="M 1003.8 409.5 L 1012.6 422.4 L 994.9 422.4 Z" fill="#3d6b52"/><path d="M 1003.8 401.0 L 1010.5 413.9 L 997.0 413.9 Z" fill="#3d6b52"/><path d="M 1003.8 392.5 L 1008.0 405.4 L 999.5 405.4 Z" fill="#3d6b52"/><rect x="969.9" y="420.7" width="2.0" height="4.1" fill="#2f5540"/><path d="M 970.9 409.5 L 978.5 420.7 L 963.3 420.7 Z" fill="#3d6b52"/><path d="M 970.9 402.2 L 976.7 413.3 L 965.1 413.3 Z" fill="#3d6b52"/><path d="M 970.9 394.9 L 974.6 406.0 L 967.3 406.0 Z" fill="#3d6b52"/><rect x="1107.0" y="425.1" width="2.2" height="4.5" fill="#2f5540"/><path d="M 1108.1 412.9 L 1116.4 425.1 L 1099.7 425.1 Z" fill="#3d6b52"/><path d="M 1108.1 404.8 L 1114.4 417.1 L 1101.7 417.1 Z" fill="#3d6b52"/><path d="M 1108.1 396.7 L 1112.1 409.0 L 1104.0 409.0 Z" fill="#3d6b52"/><rect x="1072.0" y="425.6" width="1.9" height="3.9" fill="#2f5540"/><path d="M 1073.0 414.9 L 1080.3 425.6 L 1065.6 425.6 Z" fill="#3d6b52"/><path d="M 1073.0 407.8 L 1078.5 418.5 L 1067.4 418.5 Z" fill="#3d6b52"/><path d="M 1073.0 400.8 L 1076.5 411.5 L 1069.4 411.5 Z" fill="#3d6b52"/><rect x="1041.7" y="425.2" width="1.7" height="3.6" fill="#2f5540"/><path d="M 1042.6 415.4 L 1049.3 425.2 L 1035.9 425.2 Z" fill="#3d6b52"/><path d="M 1042.6 409.0 L 1047.7 418.8 L 1037.5 418.8 Z" fill="#3d6b52"/><path d="M 1042.6 402.5 L 1045.8 412.3 L 1039.4 412.3 Z" fill="#3d6b52"/><rect x="1040.0" y="423.9" width="2.4" height="5.1" fill="#2f5540"/><path d="M 1041.2 409.9 L 1050.7 423.9 L 1031.7 423.9 Z" fill="#3d6b52"/><path d="M 1041.2 400.8 L 1048.4 414.7 L 1034.0 414.7 Z" fill="#3d6b52"/><path d="M 1041.2 391.6 L 1045.8 405.5 L 1036.6 405.5 Z" fill="#3d6b52"/><rect x="1333.4" y="432.7" width="2.1" height="4.5" fill="#2f5540"/><path d="M 1334.5 420.5 L 1342.8 432.7 L 1326.2 432.7 Z" fill="#3d6b52"/><path d="M 1334.5 412.5 L 1340.8 424.7 L 1328.2 424.7 Z" fill="#3d6b52"/><path d="M 1334.5 404.4 L 1338.5 416.6 L 1330.5 416.6 Z" fill="#3d6b52"/><rect x="1296.9" y="429.5" width="1.8" height="3.8" fill="#2f5540"/><path d="M 1297.8 419.1 L 1304.9 429.5 L 1290.7 429.5 Z" fill="#3d6b52"/><path d="M 1297.8 412.3 L 1303.2 422.7 L 1292.4 422.7 Z" fill="#3d6b52"/><path d="M 1297.8 405.4 L 1301.2 415.8 L 1294.4 415.8 Z" fill="#3d6b52"/><rect x="1278.1" y="427.5" width="2.1" height="4.4" fill="#2f5540"/><path d="M 1279.2 415.4 L 1287.4 427.5 L 1270.9 427.5 Z" fill="#3d6b52"/><path d="M 1279.2 407.5 L 1285.4 419.5 L 1272.9 419.5 Z" fill="#3d6b52"/><path d="M 1279.2 399.6 L 1283.1 411.6 L 1275.2 411.6 Z" fill="#3d6b52"/><rect x="1426.0" y="443.6" width="2.2" height="4.6" fill="#2f5540"/><path d="M 1427.0 431.1 L 1435.6 443.6 L 1418.5 443.6 Z" fill="#3d6b52"/><path d="M 1427.0 422.8 L 1433.5 435.4 L 1420.6 435.4 Z" fill="#3d6b52"/><path d="M 1427.0 414.6 L 1431.1 427.1 L 1423.0 427.1 Z" fill="#3d6b52"/><rect x="1363.5" y="436.9" width="1.8" height="3.8" fill="#2f5540"/><path d="M 1364.4 426.6 L 1371.4 436.9 L 1357.4 436.9 Z" fill="#3d6b52"/><path d="M 1364.4 419.8 L 1369.8 430.1 L 1359.1 430.1 Z" fill="#3d6b52"/><path d="M 1364.4 413.1 L 1367.8 423.3 L 1361.0 423.3 Z" fill="#3d6b52"/><rect x="1368.3" y="437.8" width="1.6" height="3.4" fill="#2f5540"/><path d="M 1369.1 428.4 L 1375.5 437.8 L 1362.7 437.8 Z" fill="#3d6b52"/><path d="M 1369.1 422.3 L 1373.9 431.6 L 1364.2 431.6 Z" fill="#3d6b52"/><path d="M 1369.1 416.1 L 1372.1 425.5 L 1366.0 425.5 Z" fill="#3d6b52"/><rect x="1381.9" y="438.1" width="2.4" height="5.0" fill="#2f5540"/><path d="M 1383.1 424.5 L 1392.4 438.1 L 1373.8 438.1 Z" fill="#3d6b52"/><path d="M 1383.1 415.5 L 1390.2 429.1 L 1376.0 429.1 Z" fill="#3d6b52"/><path d="M 1383.1 406.5 L 1387.6 420.2 L 1378.6 420.2 Z" fill="#3d6b52"/><rect x="1404.8" y="441.1" width="2.3" height="4.7" fill="#2f5540"/><path d="M 1405.9 428.2 L 1414.8 441.1 L 1397.1 441.1 Z" fill="#3d6b52"/><path d="M 1405.9 419.6 L 1412.7 432.6 L 1399.2 432.6 Z" fill="#3d6b52"/><path d="M 1405.9 411.1 L 1410.2 424.1 L 1401.7 424.1 Z" fill="#3d6b52"/><rect x="1440.5" y="446.0" width="1.6" height="3.4" fill="#2f5540"/><path d="M 1441.3 436.9 L 1447.5 446.0 L 1435.0 446.0 Z" fill="#3d6b52"/><path d="M 1441.3 430.8 L 1446.0 440.0 L 1436.5 440.0 Z" fill="#3d6b52"/><path d="M 1441.3 424.8 L 1444.3 434.0 L 1438.3 434.0 Z" fill="#3d6b52"/><rect x="1532.1" y="449.9" width="1.5" height="3.1" fill="#2f5540"/><path d="M 1532.8 441.3 L 1538.7 449.9 L 1527.0 449.9 Z" fill="#3d6b52"/><path d="M 1532.8 435.6 L 1537.3 444.2 L 1528.4 444.2 Z" fill="#3d6b52"/><path d="M 1532.8 430.0 L 1535.7 438.6 L 1530.0 438.6 Z" fill="#3d6b52"/><rect x="1556.1" y="448.5" width="1.8" height="3.8" fill="#2f5540"/><path d="M 1557.0 438.2 L 1564.1 448.5 L 1550.0 448.5 Z" fill="#3d6b52"/><path d="M 1557.0 431.4 L 1562.4 441.7 L 1551.7 441.7 Z" fill="#3d6b52"/><path d="M 1557.0 424.5 L 1560.4 434.9 L 1553.6 434.9 Z" fill="#3d6b52"/><rect x="1506.6" y="448.9" width="2.1" height="4.3" fill="#2f5540"/><path d="M 1507.7 437.2 L 1515.7 448.9 L 1499.6 448.9 Z" fill="#3d6b52"/><path d="M 1507.7 429.4 L 1513.8 441.2 L 1501.6 441.2 Z" fill="#3d6b52"/><path d="M 1507.7 421.7 L 1511.5 433.4 L 1503.8 433.4 Z" fill="#3d6b52"/>
  <path d="M -10 555.2 L 0 554.0 L 10 552.7 L 20 551.5 L 30 550.3 L 40 549.3 L 50 548.3 L 60 547.5 L 70 546.8 L 80 546.3 L 90 545.8 L 100 545.5 L 110 545.3 L 120 545.3 L 130 545.3 L 140 545.3 L 150 545.4 L 160 545.5 L 170 545.6 L 180 545.7 L 190 545.7 L 200 545.6 L 210 545.5 L 220 545.2 L 230 544.8 L 240 544.2 L 250 543.5 L 260 542.7 L 270 541.8 L 280 540.7 L 290 539.5 L 300 538.3 L 310 537.0 L 320 535.7 L 330 534.3 L 340 533.0 L 350 531.7 L 360 530.6 L 370 529.5 L 380 528.6 L 390 527.8 L 400 527.2 L 410 526.8 L 420 526.6 L 430 526.7 L 440 526.9 L 450 527.4 L 460 528.1 L 470 528.9 L 480 530.0 L 490 531.1 L 500 532.4 L 510 533.8 L 520 535.3 L 530 536.8 L 540 538.3 L 550 539.8 L 560 541.3 L 570 542.7 L 580 543.9 L 590 545.1 L 600 546.1 L 610 547.0 L 620 547.7 L 630 548.3 L 640 548.7 L 650 549.0 L 660 549.2 L 670 549.2 L 680 549.2 L 690 549.1 L 700 548.9 L 710 548.8 L 720 548.6 L 730 548.5 L 740 548.5 L 750 548.5 L 760 548.6 L 770 548.8 L 780 549.1 L 790 549.6 L 800 550.1 L 810 550.8 L 820 551.6 L 830 552.5 L 840 553.5 L 850 554.5 L 860 555.6 L 870 556.7 L 880 557.8 L 890 558.8 L 900 559.7 L 910 560.5 L 920 561.2 L 930 561.8 L 940 562.1 L 950 562.3 L 960 562.3 L 970 562.1 L 980 561.6 L 990 561.0 L 1000 560.1 L 1010 559.1 L 1020 557.9 L 1030 556.5 L 1040 555.1 L 1050 553.5 L 1060 551.8 L 1070 550.2 L 1080 548.5 L 1090 546.8 L 1100 545.2 L 1110 543.7 L 1120 542.3 L 1130 541.0 L 1140 539.9 L 1150 538.9 L 1160 538.1 L 1170 537.5 L 1180 537.0 L 1190 536.7 L 1200 536.5 L 1210 536.5 L 1220 536.6 L 1230 536.7 L 1240 537.0 L 1250 537.3 L 1260 537.6 L 1270 537.9 L 1280 538.1 L 1290 538.3 L 1300 538.5 L 1310 538.5 L 1320 538.5 L 1330 538.3 L 1340 538.0 L 1350 537.7 L 1360 537.2 L 1370 536.6 L 1380 535.9 L 1390 535.2 L 1400 534.4 L 1410 533.6 L 1420 532.8 L 1430 532.1 L 1440 531.4 L 1450 530.8 L 1460 530.3 L 1470 530.0 L 1480 529.8 L 1490 529.8 L 1500 530.0 L 1510 530.4 L 1520 531.0 L 1530 531.8 L 1540 532.7 L 1550 533.9 L 1560 535.2 L 1570 536.7 L 1580 538.2 L 1590 539.9 L 1600 541.7 L 1610 543.4 L 1610 900 L -10 900 Z" fill="#4c8341"/>
  <rect x="57.6" y="544.4" width="3.4" height="7.2" fill="#224936"/><path d="M 59.3 524.8 L 72.6 544.4 L 46.0 544.4 Z" fill="#2f5f45"/><path d="M 59.3 511.9 L 69.4 531.5 L 49.2 531.5 Z" fill="#2f5f45"/><path d="M 59.3 499.1 L 65.7 518.6 L 52.9 518.6 Z" fill="#2f5f45"/><rect x="264.3" y="540.4" width="2.7" height="5.5" fill="#224936"/><path d="M 265.6 525.3 L 275.9 540.4 L 255.2 540.4 Z" fill="#2f5f45"/><path d="M 265.6 515.3 L 273.5 530.4 L 257.7 530.4 Z" fill="#2f5f45"/><path d="M 265.6 505.3 L 270.6 520.5 L 260.6 520.5 Z" fill="#2f5f45"/><rect x="314.0" y="533.0" width="3.5" height="7.2" fill="#224936"/><path d="M 315.7 513.2 L 329.2 533.0 L 302.2 533.0 Z" fill="#2f5f45"/><path d="M 315.7 500.2 L 325.9 519.9 L 305.4 519.9 Z" fill="#2f5f45"/><path d="M 315.7 487.2 L 322.2 506.9 L 309.2 506.9 Z" fill="#2f5f45"/><rect x="347.0" y="529.1" width="3.2" height="6.7" fill="#224936"/><path d="M 348.6 510.9 L 361.0 529.1 L 336.2 529.1 Z" fill="#2f5f45"/><path d="M 348.6 499.0 L 358.0 517.2 L 339.1 517.2 Z" fill="#2f5f45"/><path d="M 348.6 487.0 L 354.6 505.2 L 342.6 505.2 Z" fill="#2f5f45"/>

  <!-- everything the market sells, standing where it would stand -->
  <ellipse cx="348.0" cy="536.0" rx="38.0" ry="10.6" fill="#1d3b22" opacity="0.22"/><rect x="313.8" y="520.8" width="68.4" height="15.2" rx="2.8" fill="#6f5231"/><rect x="313.8" y="520.8" width="68.4" height="4.8" rx="2.8" fill="#7f6a44"/><rect x="319.9" y="507.5" width="3.0" height="14.2" fill="#57a44c"/><circle cx="321.4" cy="505.6" r="5.7" fill="#e4574f"/><rect x="330.3" y="507.5" width="3.0" height="14.2" fill="#57a44c"/><circle cx="331.9" cy="505.6" r="5.7" fill="#f4b942"/><rect x="340.8" y="507.5" width="3.0" height="14.2" fill="#57a44c"/><circle cx="342.3" cy="505.6" r="5.7" fill="#d98cc8"/><rect x="351.2" y="507.5" width="3.0" height="14.2" fill="#57a44c"/><circle cx="352.8" cy="505.6" r="5.7" fill="#9fe8ff"/><rect x="361.7" y="507.5" width="3.0" height="14.2" fill="#57a44c"/><circle cx="363.2" cy="505.6" r="5.7" fill="#e4574f"/><rect x="372.1" y="507.5" width="3.0" height="14.2" fill="#57a44c"/><circle cx="373.6" cy="505.6" r="5.7" fill="#f4b942"/><ellipse cx="486.0" cy="534.6" rx="34.0" ry="9.5" fill="#1d3b22" opacity="0.22"/><rect x="450.0" y="523.6" width="20.0" height="9.0" rx="1.6" fill="#f0e2c0"/><rect x="450.0" y="513.6" width="20.0" height="9.0" rx="1.6" fill="#dccaa2"/><rect x="450.0" y="503.6" width="20.0" height="9.0" rx="1.6" fill="#f0e2c0"/><path d="M 460.0 486.6 L 447.0 495.6 L 473.0 495.6 Z" fill="#6b4420"/><rect x="476.0" y="523.6" width="20.0" height="9.0" rx="1.6" fill="#f0e2c0"/><rect x="476.0" y="513.6" width="20.0" height="9.0" rx="1.6" fill="#dccaa2"/><rect x="476.0" y="503.6" width="20.0" height="9.0" rx="1.6" fill="#f0e2c0"/><rect x="476.0" y="493.6" width="20.0" height="9.0" rx="1.6" fill="#dccaa2"/><path d="M 486.0 476.6 L 473.0 485.6 L 499.0 485.6 Z" fill="#6b4420"/><rect x="502.0" y="523.6" width="20.0" height="9.0" rx="1.6" fill="#f0e2c0"/><rect x="502.0" y="513.6" width="20.0" height="9.0" rx="1.6" fill="#dccaa2"/><rect x="502.0" y="503.6" width="20.0" height="9.0" rx="1.6" fill="#f0e2c0"/><path d="M 512.0 486.6 L 499.0 495.6 L 525.0 495.6 Z" fill="#6b4420"/><ellipse cx="1010.0" cy="563.1" rx="31.5" ry="8.8" fill="#1d3b22" opacity="0.22"/><rect x="986.9" y="531.6" width="46.2" height="31.5" rx="5.2" fill="#6b7079"/><rect x="986.9" y="525.3" width="46.2" height="11.6" rx="5.2" fill="#8a8f98"/><ellipse cx="1010.0" cy="530.6" rx="16.8" ry="5.2" fill="#14232b"/><rect x="991.1" y="495.9" width="4.2" height="31.5" fill="#6b4a2f"/><rect x="1024.7" y="495.9" width="4.2" height="31.5" fill="#6b4a2f"/><path d="M 1010.0 477.0 L 982.7 500.1 L 1037.3 500.1 Z" fill="#8f3529"/><path d="M 1010.0 480.2 L 1012.1 500.1 L 1037.3 500.1 Z" fill="#b5473a"/><ellipse cx="1168.0" cy="541.6" rx="44.1" ry="12.3" fill="#1d3b22" opacity="0.22"/><rect x="1132.3" y="505.9" width="13.7" height="35.7" rx="3.2" fill="#6b7079"/><rect x="1139.4" y="505.9" width="6.6" height="35.7" rx="3.2" fill="#a8adb6"/><rect x="1151.2" y="493.3" width="12.6" height="48.3" rx="3.2" fill="#6b7079"/><rect x="1157.8" y="493.3" width="6.0" height="48.3" rx="3.2" fill="#a8adb6"/><rect x="1170.1" y="487.0" width="13.7" height="54.6" rx="3.2" fill="#6b7079"/><rect x="1177.2" y="487.0" width="6.6" height="54.6" rx="3.2" fill="#a8adb6"/><rect x="1190.0" y="501.7" width="11.6" height="39.9" rx="3.2" fill="#6b7079"/><rect x="1196.1" y="501.7" width="5.5" height="39.9" rx="3.2" fill="#a8adb6"/><rect x="1207.9" y="516.4" width="10.5" height="25.2" rx="3.2" fill="#6b7079"/><rect x="1213.4" y="516.4" width="5.0" height="25.2" rx="3.2" fill="#a8adb6"/><ellipse cx="1310.0" cy="542.5" rx="30.0" ry="8.4" fill="#1d3b22" opacity="0.22"/><rect x="1290.0" y="446.5" width="40.0" height="96.0" rx="4.0" fill="#8a8f98"/><rect x="1290.0" y="446.5" width="15.0" height="96.0" rx="4.0" fill="#a8adb6"/><rect x="1290.0" y="462.5" width="40.0" height="2.4" fill="#6b7079" opacity="0.7"/><rect x="1290.0" y="482.5" width="40.0" height="2.4" fill="#6b7079" opacity="0.7"/><rect x="1290.0" y="502.5" width="40.0" height="2.4" fill="#6b7079" opacity="0.7"/><rect x="1290.0" y="522.5" width="40.0" height="2.4" fill="#6b7079" opacity="0.7"/><ellipse cx="1310.0" cy="446.5" rx="25.0" ry="15.0" fill="#8f3529"/><ellipse cx="1307.0" cy="442.5" rx="18.0" ry="9.0" fill="#b5473a"/><ellipse cx="1424.0" cy="536.5" rx="28.0" ry="7.8" fill="#1d3b22" opacity="0.22"/><rect x="1413.0" y="496.5" width="22.0" height="40.0" rx="3.0" fill="#8a8f98"/><rect x="1425.0" y="496.5" width="10.0" height="40.0" rx="3.0" fill="#a8adb6"/><ellipse cx="1424.0" cy="493.5" rx="28.0" ry="10.0" fill="#dccaa2"/><ellipse cx="1424.0" cy="491.5" rx="23.0" ry="8.0" fill="#f0e2c0"/><path d="M 1424.0 462.5 L 1424.0 490.5 L 1442.0 490.5 Z" fill="#5f6b74"/><ellipse cx="1520.0" cy="535.0" rx="31.5" ry="8.8" fill="#1d3b22" opacity="0.22"/><rect x="1496.9" y="503.5" width="46.2" height="31.5" rx="3.2" fill="#6b7079"/><path d="M 1501.1 503.5 L 1509.5 421.6 L 1515.8 421.6 L 1511.6 503.5 Z" fill="#6b4a2f"/><path d="M 1538.9 503.5 L 1530.5 421.6 L 1524.2 421.6 L 1528.4 503.5 Z" fill="#6b4a2f"/><rect x="1505.3" y="459.4" width="29.4" height="4.2" fill="#8b5a2b"/><rect x="1494.8" y="406.9" width="50.4" height="14.7" rx="2.1" fill="#8b5a2b"/><path d="M 1520.0 375.4 L 1488.5 409.0 L 1551.5 409.0 Z" fill="#8f3529"/><circle cx="1520.0" cy="398.5" r="11.6" fill="#f4b942" opacity="0.45"/><circle cx="1520.0" cy="398.5" r="5.2" fill="#f5e6c8"/>

  <path d="M -10 666.4 L 0 666.5 L 10 666.6 L 20 666.8 L 30 666.8 L 40 666.9 L 50 666.9 L 60 667.0 L 70 666.9 L 80 666.9 L 90 666.8 L 100 666.6 L 110 666.4 L 120 666.2 L 130 666.0 L 140 665.7 L 150 665.4 L 160 665.1 L 170 664.7 L 180 664.3 L 190 664.0 L 200 663.6 L 210 663.2 L 220 662.8 L 230 662.4 L 240 662.0 L 250 661.7 L 260 661.4 L 270 661.1 L 280 660.9 L 290 660.7 L 300 660.5 L 310 660.4 L 320 660.4 L 330 660.4 L 340 660.5 L 350 660.6 L 360 660.8 L 370 661.1 L 380 661.4 L 390 661.9 L 400 662.3 L 410 662.9 L 420 663.4 L 430 664.1 L 440 664.8 L 450 665.5 L 460 666.3 L 470 667.1 L 480 667.9 L 490 668.8 L 500 669.7 L 510 670.6 L 520 671.5 L 530 672.3 L 540 673.2 L 550 674.1 L 560 674.9 L 570 675.7 L 580 676.5 L 590 677.2 L 600 677.9 L 610 678.5 L 620 679.1 L 630 679.6 L 640 680.1 L 650 680.5 L 660 680.8 L 670 681.1 L 680 681.3 L 690 681.4 L 700 681.5 L 710 681.6 L 720 681.6 L 730 681.5 L 740 681.4 L 750 681.3 L 760 681.1 L 770 680.9 L 780 680.7 L 790 680.4 L 800 680.1 L 810 679.9 L 820 679.6 L 830 679.3 L 840 679.1 L 850 678.8 L 860 678.6 L 870 678.4 L 880 678.2 L 890 678.1 L 900 677.9 L 910 677.9 L 920 677.8 L 930 677.8 L 940 677.8 L 950 677.9 L 960 678.0 L 970 678.1 L 980 678.3 L 990 678.4 L 1000 678.6 L 1010 678.9 L 1020 679.1 L 1030 679.4 L 1040 679.6 L 1050 679.9 L 1060 680.1 L 1070 680.4 L 1080 680.6 L 1090 680.8 L 1100 680.9 L 1110 681.1 L 1120 681.2 L 1130 681.2 L 1140 681.2 L 1150 681.2 L 1160 681.1 L 1170 680.9 L 1180 680.7 L 1190 680.4 L 1200 680.1 L 1210 679.7 L 1220 679.2 L 1230 678.7 L 1240 678.1 L 1250 677.5 L 1260 676.8 L 1270 676.1 L 1280 675.3 L 1290 674.5 L 1300 673.7 L 1310 672.9 L 1320 672.0 L 1330 671.1 L 1340 670.2 L 1350 669.3 L 1360 668.5 L 1370 667.6 L 1380 666.8 L 1390 665.9 L 1400 665.2 L 1410 664.4 L 1420 663.8 L 1430 663.1 L 1440 662.5 L 1450 662.0 L 1460 661.5 L 1470 661.1 L 1480 660.8 L 1490 660.5 L 1500 660.3 L 1510 660.2 L 1520 660.1 L 1530 660.1 L 1540 660.2 L 1550 660.3 L 1560 660.4 L 1570 660.6 L 1580 660.9 L 1590 661.2 L 1600 661.5 L 1610 661.9 L 1610 900 L -10 900 Z" fill="#3f7238"/>
  <ellipse cx="176.0" cy="670.5" rx="62.4" ry="17.5" fill="#1d3b22" opacity="0.22"/><rect x="164.3" y="589.9" width="23.4" height="80.6" rx="5.2" fill="#4d3521"/><rect x="164.3" y="589.9" width="9.1" height="80.6" rx="5.2" fill="#6b4a2f"/><circle cx="137.0" cy="561.3" r="37.7" fill="#2f5e2c"/><circle cx="215.0" cy="566.5" r="35.1" fill="#2f5e2c"/><circle cx="176.0" cy="543.1" r="45.5" fill="#3f7a3a"/><circle cx="194.2" cy="519.7" r="22.1" fill="#57a44c"/>
  <ellipse cx="700.0" cy="691.5" rx="129.6" ry="36.3" fill="#1d3b22" opacity="0.22"/><rect x="583.9" y="524.1" width="13.5" height="167.4" fill="#6b4420"/><rect x="802.6" y="524.1" width="13.5" height="167.4" fill="#6b4420"/><rect x="589.3" y="613.2" width="221.4" height="78.3" rx="5.4" fill="#8b5a2b"/><rect x="589.3" y="613.2" width="221.4" height="12.2" rx="5.4" fill="#a6733c"/><rect x="610.9" y="578.1" width="56.7" height="36.5" rx="4.1" fill="#a6733c"/><rect x="675.7" y="586.2" width="45.9" height="28.4" rx="4.1" fill="#8b5a2b"/><circle cx="745.9" cy="597.0" r="17.6" fill="#57a44c"/><circle cx="778.3" cy="602.4" r="12.2" fill="#f4b942"/><circle cx="778.3" cy="599.7" r="4.6" fill="#f5e6c8" opacity="0.8"/><path d="M 575.8 521.4 L 617.2 521.4 L 619.9 561.9 L 578.5 561.9 Z" fill="#b5473a"/><path d="M 617.1 521.4 L 658.6 521.4 L 661.3 561.9 L 619.8 561.9 Z" fill="#f5e6c8"/><path d="M 658.4 521.4 L 699.9 521.4 L 702.6 561.9 L 661.1 561.9 Z" fill="#b5473a"/><path d="M 699.7 521.4 L 741.2 521.4 L 743.9 561.9 L 702.4 561.9 Z" fill="#f5e6c8"/><path d="M 741.0 521.4 L 782.5 521.4 L 785.2 561.9 L 743.7 561.9 Z" fill="#b5473a"/><path d="M 782.3 521.4 L 823.8 521.4 L 826.5 561.9 L 785.0 561.9 Z" fill="#f5e6c8"/><rect x="570.4" y="516.0" width="259.2" height="12.2" rx="4.1" fill="#6b4420"/>
  <ellipse cx="880.0" cy="692.2" rx="45.0" ry="12.6" fill="#1d3b22" opacity="0.22"/><rect x="862.06" y="662.21" width="12.48" height="30.00" rx="3.90" fill="#3a5c86"/><rect x="885.46" y="662.21" width="12.48" height="30.00" rx="3.90" fill="#3a5c86"/><path d="M 862.84 665.21 L 859.72 623.21 L 900.28 623.21 L 897.16 665.21 Z" fill="#5b86c4"/><circle cx="880.00" cy="600.44" r="24.75" fill="#f0c9a0"/><ellipse cx="880.00" cy="590.04" rx="38.25" ry="9.90" fill="#f4b942"/>

  <path d="M -10 821.0 L 0 821.0 L 10 821.1 L 20 821.0 L 30 820.8 L 40 820.6 L 50 820.3 L 60 820.0 L 70 819.6 L 80 819.2 L 90 818.7 L 100 818.3 L 110 817.8 L 120 817.3 L 130 816.9 L 140 816.4 L 150 816.0 L 160 815.7 L 170 815.4 L 180 815.1 L 190 814.9 L 200 814.7 L 210 814.6 L 220 814.5 L 230 814.4 L 240 814.4 L 250 814.5 L 260 814.5 L 270 814.6 L 280 814.7 L 290 814.8 L 300 814.9 L 310 814.9 L 320 815.0 L 330 815.0 L 340 814.9 L 350 814.8 L 360 814.7 L 370 814.5 L 380 814.2 L 390 813.9 L 400 813.5 L 410 813.1 L 420 812.6 L 430 812.0 L 440 811.4 L 450 810.7 L 460 810.0 L 470 809.3 L 480 808.6 L 490 807.8 L 500 807.1 L 510 806.4 L 520 805.7 L 530 805.0 L 540 804.4 L 550 803.9 L 560 803.4 L 570 803.0 L 580 802.7 L 590 802.4 L 600 802.3 L 610 802.2 L 620 802.2 L 630 802.3 L 640 802.5 L 650 802.8 L 660 803.2 L 670 803.6 L 680 804.0 L 690 804.5 L 700 805.1 L 710 805.7 L 720 806.3 L 730 806.9 L 740 807.5 L 750 808.0 L 760 808.6 L 770 809.1 L 780 809.6 L 790 810.0 L 800 810.4 L 810 810.8 L 820 811.0 L 830 811.3 L 840 811.4 L 850 811.6 L 860 811.6 L 870 811.7 L 880 811.7 L 890 811.7 L 900 811.6 L 910 811.6 L 920 811.5 L 930 811.5 L 940 811.4 L 950 811.4 L 960 811.5 L 970 811.5 L 980 811.7 L 990 811.8 L 1000 812.0 L 1010 812.3 L 1020 812.7 L 1030 813.0 L 1040 813.5 L 1050 814.0 L 1060 814.5 L 1070 815.1 L 1080 815.7 L 1090 816.3 L 1100 817.0 L 1110 817.6 L 1120 818.2 L 1130 818.9 L 1140 819.4 L 1150 820.0 L 1160 820.5 L 1170 820.9 L 1180 821.3 L 1190 821.5 L 1200 821.8 L 1210 821.9 L 1220 821.9 L 1230 821.9 L 1240 821.7 L 1250 821.5 L 1260 821.2 L 1270 820.8 L 1280 820.3 L 1290 819.8 L 1300 819.2 L 1310 818.5 L 1320 817.9 L 1330 817.2 L 1340 816.5 L 1350 815.8 L 1360 815.1 L 1370 814.4 L 1380 813.7 L 1390 813.1 L 1400 812.5 L 1410 812.0 L 1420 811.6 L 1430 811.1 L 1440 810.8 L 1450 810.5 L 1460 810.3 L 1470 810.1 L 1480 810.0 L 1490 809.9 L 1500 809.9 L 1510 809.9 L 1520 810.0 L 1530 810.0 L 1540 810.1 L 1550 810.2 L 1560 810.2 L 1570 810.3 L 1580 810.3 L 1590 810.3 L 1600 810.2 L 1610 810.1 L 1610 900 L -10 900 Z" fill="#356030"/>
  <path d="M -9.9 823.0 q 4.3 -9.4 1.5 -15.2" fill="none" stroke="#2b5228" stroke-width="2.0" stroke-linecap="round"/><path d="M -7.0 823.0 q 10.4 -23.0 3.7 -37.0" fill="none" stroke="#2b5228" stroke-width="4.1" stroke-linecap="round"/><path d="M -17.7 822.8 q 10.7 -23.7 3.8 -38.2" fill="none" stroke="#2b5228" stroke-width="4.2" stroke-linecap="round"/><path d="M -17.3 822.8 q 6.8 -15.2 2.4 -24.5" fill="none" stroke="#2b5228" stroke-width="2.7" stroke-linecap="round"/><path d="M 51.7 822.3 q 8.4 -18.6 3.0 -29.9" fill="none" stroke="#2b5228" stroke-width="3.3" stroke-linecap="round"/><path d="M 48.8 822.4 q 8.5 -18.8 3.0 -30.3" fill="none" stroke="#2b5228" stroke-width="3.3" stroke-linecap="round"/><path d="M 48.4 822.4 q 10.9 -24.0 3.9 -38.8" fill="none" stroke="#2b5228" stroke-width="4.3" stroke-linecap="round"/><path d="M 91.2 820.7 q 3.9 -8.6 1.4 -13.9" fill="none" stroke="#2b5228" stroke-width="2.0" stroke-linecap="round"/><path d="M 97.1 820.4 q 6.3 -13.9 2.2 -22.4" fill="none" stroke="#2b5228" stroke-width="2.5" stroke-linecap="round"/><path d="M 88.2 820.8 q 8.0 -17.6 2.8 -28.4" fill="none" stroke="#2b5228" stroke-width="3.1" stroke-linecap="round"/><path d="M 87.3 820.8 q 9.8 -21.8 3.5 -35.1" fill="none" stroke="#2b5228" stroke-width="3.9" stroke-linecap="round"/><path d="M 131.5 818.8 q 6.7 -14.8 2.4 -23.9" fill="none" stroke="#2b5228" stroke-width="2.6" stroke-linecap="round"/><path d="M 140.9 818.4 q 6.7 -14.9 2.4 -24.1" fill="none" stroke="#2b5228" stroke-width="2.6" stroke-linecap="round"/><path d="M 143.5 818.3 q 10.9 -24.2 3.9 -39.0" fill="none" stroke="#2b5228" stroke-width="4.3" stroke-linecap="round"/><path d="M 211.6 816.5 q 3.5 -7.8 1.3 -12.6" fill="none" stroke="#2b5228" stroke-width="2.0" stroke-linecap="round"/><path d="M 218.5 816.5 q 7.6 -16.8 2.7 -27.1" fill="none" stroke="#2b5228" stroke-width="3.0" stroke-linecap="round"/><path d="M 214.2 816.5 q 9.6 -21.2 3.4 -34.1" fill="none" stroke="#2b5228" stroke-width="3.8" stroke-linecap="round"/><path d="M 213.3 816.5 q 6.7 -14.7 2.4 -23.8" fill="none" stroke="#2b5228" stroke-width="2.6" stroke-linecap="round"/><path d="M 217.4 816.5 q 8.5 -18.7 3.0 -30.2" fill="none" stroke="#2b5228" stroke-width="3.3" stroke-linecap="round"/><path d="M 272.5 816.6 q 10.5 -23.2 3.7 -37.4" fill="none" stroke="#2b5228" stroke-width="4.1" stroke-linecap="round"/><path d="M 284.6 816.7 q 7.0 -15.5 2.5 -25.0" fill="none" stroke="#2b5228" stroke-width="2.8" stroke-linecap="round"/><path d="M 318.5 817.0 q 5.8 -12.7 2.1 -20.5" fill="none" stroke="#2b5228" stroke-width="2.3" stroke-linecap="round"/><path d="M 310.2 816.9 q 6.6 -14.6 2.4 -23.5" fill="none" stroke="#2b5228" stroke-width="2.6" stroke-linecap="round"/><path d="M 317.0 816.9 q 3.5 -7.7 1.2 -12.5" fill="none" stroke="#2b5228" stroke-width="2.0" stroke-linecap="round"/><path d="M 312.4 816.9 q 7.1 -15.8 2.6 -25.5" fill="none" stroke="#2b5228" stroke-width="2.8" stroke-linecap="round"/><path d="M 346.4 816.9 q 8.6 -19.1 3.1 -30.8" fill="none" stroke="#2b5228" stroke-width="3.4" stroke-linecap="round"/><path d="M 349.6 816.8 q 9.2 -20.4 3.3 -32.8" fill="none" stroke="#2b5228" stroke-width="3.6" stroke-linecap="round"/><path d="M 348.0 816.9 q 9.6 -21.2 3.4 -34.3" fill="none" stroke="#2b5228" stroke-width="3.8" stroke-linecap="round"/><path d="M 351.1 816.8 q 3.7 -8.3 1.3 -13.4" fill="none" stroke="#2b5228" stroke-width="2.0" stroke-linecap="round"/><path d="M 362.9 816.6 q 10.4 -23.0 3.7 -37.1" fill="none" stroke="#2b5228" stroke-width="4.1" stroke-linecap="round"/><path d="M 403.7 815.4 q 6.8 -15.1 2.4 -24.3" fill="none" stroke="#2b5228" stroke-width="2.7" stroke-linecap="round"/><path d="M 402.0 815.4 q 10.8 -23.9 3.8 -38.5" fill="none" stroke="#2b5228" stroke-width="4.2" stroke-linecap="round"/><path d="M 448.1 812.8 q 6.4 -14.3 2.3 -23.0" fill="none" stroke="#2b5228" stroke-width="2.5" stroke-linecap="round"/><path d="M 460.9 812.0 q 9.0 -20.0 3.2 -32.2" fill="none" stroke="#2b5228" stroke-width="3.5" stroke-linecap="round"/><path d="M 457.7 812.2 q 8.2 -18.2 2.9 -29.4" fill="none" stroke="#2b5228" stroke-width="3.2" stroke-linecap="round"/><path d="M 498.0 809.2 q 4.8 -10.7 1.7 -17.2" fill="none" stroke="#2b5228" stroke-width="2.0" stroke-linecap="round"/><path d="M 502.0 808.9 q 9.4 -20.8 3.4 -33.6" fill="none" stroke="#2b5228" stroke-width="3.7" stroke-linecap="round"/><path d="M 501.4 809.0 q 10.1 -22.3 3.6 -35.9" fill="none" stroke="#2b5228" stroke-width="3.9" stroke-linecap="round"/><path d="M 503.3 808.8 q 6.2 -13.8 2.2 -22.2" fill="none" stroke="#2b5228" stroke-width="2.4" stroke-linecap="round"/><path d="M 505.0 808.7 q 6.5 -14.4 2.3 -23.2" fill="none" stroke="#2b5228" stroke-width="2.6" stroke-linecap="round"/><path d="M 565.9 805.1 q 8.3 -18.4 3.0 -29.7" fill="none" stroke="#2b5228" stroke-width="3.3" stroke-linecap="round"/><path d="M 572.0 804.9 q 10.3 -22.9 3.7 -36.9" fill="none" stroke="#2b5228" stroke-width="4.1" stroke-linecap="round"/><path d="M 564.2 805.2 q 7.8 -17.2 2.8 -27.7" fill="none" stroke="#2b5228" stroke-width="3.1" stroke-linecap="round"/><path d="M 568.3 805.1 q 10.9 -24.2 3.9 -39.1" fill="none" stroke="#2b5228" stroke-width="4.3" stroke-linecap="round"/><path d="M 616.7 804.2 q 7.2 -16.0 2.6 -25.8" fill="none" stroke="#2b5228" stroke-width="2.8" stroke-linecap="round"/><path d="M 618.3 804.2 q 9.5 -21.1 3.4 -34.1" fill="none" stroke="#2b5228" stroke-width="3.7" stroke-linecap="round"/><path d="M 671.7 805.6 q 7.1 -15.8 2.5 -25.4" fill="none" stroke="#2b5228" stroke-width="2.8" stroke-linecap="round"/><path d="M 667.5 805.5 q 9.1 -20.2 3.3 -32.6" fill="none" stroke="#2b5228" stroke-width="3.6" stroke-linecap="round"/><path d="M 673.0 805.7 q 8.9 -19.6 3.2 -31.7" fill="none" stroke="#2b5228" stroke-width="3.5" stroke-linecap="round"/><path d="M 665.7 805.4 q 3.9 -8.7 1.4 -14.0" fill="none" stroke="#2b5228" stroke-width="2.0" stroke-linecap="round"/><path d="M 716.8 808.1 q 4.5 -9.9 1.6 -16.0" fill="none" stroke="#2b5228" stroke-width="2.0" stroke-linecap="round"/><path d="M 720.5 808.3 q 10.8 -23.8 3.8 -38.4" fill="none" stroke="#2b5228" stroke-width="4.2" stroke-linecap="round"/><path d="M 722.2 808.4 q 3.5 -7.7 1.2 -12.4" fill="none" stroke="#2b5228" stroke-width="2.0" stroke-linecap="round"/><path d="M 725.0 808.6 q 8.9 -19.8 3.2 -31.9" fill="none" stroke="#2b5228" stroke-width="3.5" stroke-linecap="round"/><path d="M 733.0 809.0 q 10.6 -23.5 3.8 -37.9" fill="none" stroke="#2b5228" stroke-width="4.2" stroke-linecap="round"/><path d="M 769.2 811.1 q 11.1 -24.6 4.0 -39.7" fill="none" stroke="#2b5228" stroke-width="4.4" stroke-linecap="round"/><path d="M 769.4 811.1 q 9.8 -21.7 3.5 -35.0" fill="none" stroke="#2b5228" stroke-width="3.9" stroke-linecap="round"/><path d="M 773.7 811.3 q 8.2 -18.1 2.9 -29.3" fill="none" stroke="#2b5228" stroke-width="3.2" stroke-linecap="round"/><path d="M 837.6 813.4 q 11.0 -24.4 3.9 -39.4" fill="none" stroke="#2b5228" stroke-width="4.3" stroke-linecap="round"/><path d="M 839.6 813.4 q 9.1 -20.1 3.2 -32.4" fill="none" stroke="#2b5228" stroke-width="3.6" stroke-linecap="round"/><path d="M 889.4 813.7 q 5.1 -11.4 1.8 -18.3" fill="none" stroke="#2b5228" stroke-width="2.0" stroke-linecap="round"/><path d="M 894.6 813.6 q 7.2 -15.9 2.6 -25.7" fill="none" stroke="#2b5228" stroke-width="2.8" stroke-linecap="round"/><path d="M 898.1 813.6 q 9.2 -20.3 3.3 -32.7" fill="none" stroke="#2b5228" stroke-width="3.6" stroke-linecap="round"/><path d="M 963.0 813.5 q 10.1 -22.4 3.6 -36.2" fill="none" stroke="#2b5228" stroke-width="4.0" stroke-linecap="round"/><path d="M 963.1 813.5 q 8.1 -17.9 2.9 -28.8" fill="none" stroke="#2b5228" stroke-width="3.2" stroke-linecap="round"/><path d="M 961.1 813.5 q 9.1 -20.2 3.3 -32.6" fill="none" stroke="#2b5228" stroke-width="3.6" stroke-linecap="round"/><path d="M 961.3 813.5 q 10.3 -22.7 3.7 -36.7" fill="none" stroke="#2b5228" stroke-width="4.0" stroke-linecap="round"/><path d="M 960.4 813.5 q 9.4 -20.7 3.3 -33.4" fill="none" stroke="#2b5228" stroke-width="3.7" stroke-linecap="round"/><path d="M 1000.0 814.0 q 10.5 -23.2 3.7 -37.4" fill="none" stroke="#2b5228" stroke-width="4.1" stroke-linecap="round"/><path d="M 1010.8 814.3 q 7.6 -16.8 2.7 -27.2" fill="none" stroke="#2b5228" stroke-width="3.0" stroke-linecap="round"/><path d="M 999.8 814.0 q 7.5 -16.6 2.7 -26.7" fill="none" stroke="#2b5228" stroke-width="2.9" stroke-linecap="round"/><path d="M 996.7 814.0 q 3.5 -7.8 1.3 -12.6" fill="none" stroke="#2b5228" stroke-width="2.0" stroke-linecap="round"/><path d="M 1081.8 817.8 q 7.9 -17.5 2.8 -28.3" fill="none" stroke="#2b5228" stroke-width="3.1" stroke-linecap="round"/><path d="M 1082.9 817.9 q 6.6 -14.6 2.4 -23.6" fill="none" stroke="#2b5228" stroke-width="2.6" stroke-linecap="round"/><path d="M 1137.7 821.3 q 11.0 -24.3 3.9 -39.1" fill="none" stroke="#2b5228" stroke-width="4.3" stroke-linecap="round"/><path d="M 1123.6 820.5 q 6.1 -13.5 2.2 -21.8" fill="none" stroke="#2b5228" stroke-width="2.4" stroke-linecap="round"/><path d="M 1125.2 820.6 q 3.8 -8.4 1.4 -13.5" fill="none" stroke="#2b5228" stroke-width="2.0" stroke-linecap="round"/><path d="M 1134.4 821.1 q 6.6 -14.6 2.3 -23.5" fill="none" stroke="#2b5228" stroke-width="2.6" stroke-linecap="round"/><path d="M 1130.6 820.9 q 9.0 -20.0 3.2 -32.2" fill="none" stroke="#2b5228" stroke-width="3.5" stroke-linecap="round"/><path d="M 1190.8 823.6 q 5.9 -13.1 2.1 -21.1" fill="none" stroke="#2b5228" stroke-width="2.3" stroke-linecap="round"/><path d="M 1193.7 823.6 q 10.8 -24.0 3.9 -38.7" fill="none" stroke="#2b5228" stroke-width="4.3" stroke-linecap="round"/><path d="M 1262.5 823.1 q 8.6 -19.0 3.1 -30.6" fill="none" stroke="#2b5228" stroke-width="3.4" stroke-linecap="round"/><path d="M 1261.1 823.1 q 3.9 -8.7 1.4 -14.0" fill="none" stroke="#2b5228" stroke-width="2.0" stroke-linecap="round"/><path d="M 1260.0 823.2 q 5.9 -13.0 2.1 -20.9" fill="none" stroke="#2b5228" stroke-width="2.3" stroke-linecap="round"/><path d="M 1252.0 823.4 q 9.7 -21.5 3.5 -34.6" fill="none" stroke="#2b5228" stroke-width="3.8" stroke-linecap="round"/><path d="M 1299.3 821.2 q 4.9 -10.9 1.8 -17.6" fill="none" stroke="#2b5228" stroke-width="2.0" stroke-linecap="round"/><path d="M 1311.4 820.5 q 4.3 -9.5 1.5 -15.4" fill="none" stroke="#2b5228" stroke-width="2.0" stroke-linecap="round"/><path d="M 1316.5 820.1 q 9.1 -20.1 3.2 -32.4" fill="none" stroke="#2b5228" stroke-width="3.6" stroke-linecap="round"/><path d="M 1314.5 820.2 q 5.7 -12.6 2.0 -20.3" fill="none" stroke="#2b5228" stroke-width="2.2" stroke-linecap="round"/><path d="M 1300.5 821.1 q 5.2 -11.4 1.8 -18.4" fill="none" stroke="#2b5228" stroke-width="2.0" stroke-linecap="round"/><path d="M 1338.6 818.6 q 10.1 -22.4 3.6 -36.2" fill="none" stroke="#2b5228" stroke-width="4.0" stroke-linecap="round"/><path d="M 1350.2 817.8 q 5.0 -11.1 1.8 -17.8" fill="none" stroke="#2b5228" stroke-width="2.0" stroke-linecap="round"/><path d="M 1351.2 817.7 q 7.1 -15.7 2.5 -25.3" fill="none" stroke="#2b5228" stroke-width="2.8" stroke-linecap="round"/><path d="M 1350.0 817.8 q 5.2 -11.6 1.9 -18.6" fill="none" stroke="#2b5228" stroke-width="2.1" stroke-linecap="round"/><path d="M 1406.5 814.2 q 11.1 -24.6 4.0 -39.6" fill="none" stroke="#2b5228" stroke-width="4.4" stroke-linecap="round"/><path d="M 1404.9 814.3 q 4.3 -9.6 1.5 -15.4" fill="none" stroke="#2b5228" stroke-width="2.0" stroke-linecap="round"/><path d="M 1406.3 814.2 q 10.4 -22.9 3.7 -37.0" fill="none" stroke="#2b5228" stroke-width="4.1" stroke-linecap="round"/><path d="M 1438.8 812.8 q 9.6 -21.2 3.4 -34.2" fill="none" stroke="#2b5228" stroke-width="3.8" stroke-linecap="round"/><path d="M 1441.2 812.8 q 11.0 -24.4 3.9 -39.3" fill="none" stroke="#2b5228" stroke-width="4.3" stroke-linecap="round"/><path d="M 1513.4 811.9 q 6.6 -14.7 2.4 -23.7" fill="none" stroke="#2b5228" stroke-width="2.6" stroke-linecap="round"/><path d="M 1504.7 811.9 q 6.3 -13.9 2.2 -22.4" fill="none" stroke="#2b5228" stroke-width="2.5" stroke-linecap="round"/><path d="M 1505.3 811.9 q 5.6 -12.5 2.0 -20.2" fill="none" stroke="#2b5228" stroke-width="2.2" stroke-linecap="round"/><path d="M 1502.0 811.9 q 8.9 -19.6 3.2 -31.6" fill="none" stroke="#2b5228" stroke-width="3.5" stroke-linecap="round"/><path d="M 1512.4 811.9 q 10.5 -23.3 3.8 -37.7" fill="none" stroke="#2b5228" stroke-width="4.1" stroke-linecap="round"/><path d="M 1548.0 812.1 q 11.0 -24.3 3.9 -39.2" fill="none" stroke="#2b5228" stroke-width="4.3" stroke-linecap="round"/><path d="M 1559.5 812.2 q 3.9 -8.5 1.4 -13.8" fill="none" stroke="#2b5228" stroke-width="2.0" stroke-linecap="round"/><path d="M 1559.0 812.2 q 9.2 -20.3 3.3 -32.8" fill="none" stroke="#2b5228" stroke-width="3.6" stroke-linecap="round"/><path d="M 1548.8 812.2 q 8.5 -18.9 3.0 -30.5" fill="none" stroke="#2b5228" stroke-width="3.4" stroke-linecap="round"/><path d="M 1558.9 812.2 q 8.7 -19.3 3.1 -31.1" fill="none" stroke="#2b5228" stroke-width="3.4" stroke-linecap="round"/><path d="M 1596.8 812.2 q 5.0 -11.0 1.8 -17.7" fill="none" stroke="#2b5228" stroke-width="2.0" stroke-linecap="round"/><path d="M 1591.9 812.3 q 10.2 -22.5 3.6 -36.3" fill="none" stroke="#2b5228" stroke-width="4.0" stroke-linecap="round"/>

  <rect width="1600" height="330" fill="url(#topshade)"/>
  <g font-family="ui-sans-serif, system-ui, -apple-system, Segoe UI, Roboto, sans-serif">
    <text x="74" y="88" font-size="15" font-weight="700" letter-spacing="6.5"
          fill="#ffd88a" opacity="0.95">AMBERVALE · THE MARKET</text>
    <text x="72" y="166" font-size="70" font-weight="800" letter-spacing="-1.6"
          fill="#ffffff">The market sells more than seeds.</text>
    <line x1="74" y1="198" x2="286" y2="198" stroke="#f4b942" stroke-width="2.4" opacity="0.9"/>
    <text x="74" y="240" font-size="25" fill="#ffffff" opacity="0.9">
      Eight landmarks you can buy and build. Not one of them earns you anything.
    </text>
    <text x="74" y="276" font-size="21" fill="#ffe6b0" opacity="0.8">
      They stand in your vale, visible from the road, and still there tomorrow.
    </text>
  </g>

  <rect x="0" y="716" width="1600" height="184" fill="url(#footer)"/>
  <g font-family="ui-sans-serif, system-ui, -apple-system, Segoe UI, Roboto, sans-serif"
     text-anchor="middle">
    <text x="800.0" y="828" font-size="19" font-weight="700" letter-spacing="5.8"
          fill="#f7ead2" opacity="0.94">
      GARDEN · WELL · BEEHIVES · STONES · SILO · OAK · TOWER · SUNDIAL
    </text>
    <text x="800.0" y="860" font-size="16" fill="#f7ead2" opacity="0.55">
      40,800 coins for the set · +43 renown · no wallet needed to start
    </text>
    <text x="800.0" y="890" font-size="16" font-weight="700" letter-spacing="7.5"
          fill="#f4b942" opacity="0.92">AMBERVALE.FUN</text>
  </g>
  <rect width="1600" height="900" filter="url(#grain)" opacity="0.05" style="mix-blend-mode:overlay"/>
</svg>
